<svg width="500" height="500" style="background-color: #eee;" xmlns="http://www.w3.org/2000/svg" viewBox="-10 -10 510 510"><path d="M360 65 300 380l105 10 -355 -320 360 350 -270 5L415 10 135 0l75 275 110 40 -125 -50 -110 190 205 -375 -20 250 165 -130 25 -25 -315 210 -20 -135 155 75 -170 -165 -90 30L95 15l125 435L30 165l210 -60 -60 130 25 160L305 25 170 465 100 75l375 325 -435 -25 190 -130 140 -155 100 60 -255 145 45 55 -140 80L310 35 255 490 115 5l365 360 15 -210 -50 30 -220 170 260 -15 -430 -5 290 -205L45 60l395 225" fill="none" stroke="black" stroke-width="5"/><path d="m45 60 395 225 -80 -220 -60 315 105 10 -355 -320 360 350 -270 5L415 10 135 0l75 275 110 40 -125 -50 -110 190 205 -375 -20 250 165 -130 25 -25 -315 210 -20 -135 155 75 -170 -165 -90 30L95 15l125 435L30 165l210 -60 -60 130 25 160L305 25 170 465 100 75l375 325 -435 -25 190 -130 140 -155 100 60 -255 145 45 55 -140 80L310 35 255 490 115 5l365 360 15 -210 -50 30 -220 170 260 -15 -430 -5 290 -205" fill="none" stroke="white" stroke-width="2.5" /></svg>