<svg width="755" height="283" xmlns="http://www.w3.org/2000/svg">

 <g>
  <title>Layer 1</title>
  <path opacity="undefined" stroke="#d36804" id="svg_5" d="m50.5218,142.41372l165.53057,-97.71064l0.14299,192.21789l-165.67356,-94.50725z" stroke-width="5" fill="#ffffff"/>
  <path id="svg_3" d="m202.1822,67.04235c-12.35812,-7.0496 -16.65801,-22.76986 -9.60841,-35.12797c7.0496,-12.35812 22.76986,-16.65801 35.12797,-9.60841c12.35812,7.0496 16.65801,22.76986 9.60841,35.12797c-7.0496,12.35812 -22.76986,16.65801 -35.12797,9.60841z" opacity="undefined" stroke-width="5" stroke="#008484" fill="#79e0e0"/>
  <path opacity="undefined" stroke="#2b2b2b" id="svg_16" d="m473.20942,142.90152l165.53057,-97.71064l0.14298,192.21789l-165.67355,-94.50725z" stroke-width="5" fill="#ffffff"/>
  <path transform="rotate(90 338.878 135.328)" opacity="undefined" id="svg_21" d="m317.90264,135.24141l20.97559,-36.01088l20.97559,36.01088l-10.4878,0l0,36.18416l-20.97559,0l0,-36.18416l-10.4878,0z" stroke-width="5" stroke="#000" fill="#dddd80"/>
  <path id="svg_25" d="m200.23099,248.01773c-12.35812,-7.0496 -16.65802,-22.76986 -9.60841,-35.12797c7.0496,-12.35812 22.76985,-16.65802 35.12797,-9.60841c12.35812,7.0496 16.65801,22.76985 9.60841,35.12797c-7.0496,12.35812 -22.76985,16.65801 -35.12797,9.60841z" opacity="undefined" stroke-width="5" stroke="#008484" fill="#79e0e0"/>
  <path id="svg_24" d="m32.91412,162.16418c-12.35812,-7.0496 -16.65802,-22.76986 -9.60841,-35.12797c7.0496,-12.35812 22.76985,-16.65802 35.12797,-9.60841c12.35812,7.0496 16.65801,22.76985 9.60841,35.12797c-7.0496,12.35812 -22.76985,16.65801 -35.12797,9.60841z" opacity="undefined" stroke-width="5" stroke="#007010" fill="#92f492"/>
  <text stroke="#000" transform="matrix(1.5643 0.00292536 -0.00292536 1.5643 -182.886 -226.038)" xml:space="preserve" text-anchor="start" font-family="Noto Sans JP" font-size="24" id="svg_7" y="238.96831" x="141.76739" stroke-width="0" fill="#000000">s</text>
  <line opacity="undefined" id="svg_37" y2="39.75245" x2="518.09978" y1="145.11818" x1="474.19739" stroke-width="5" stroke="#d36804" fill="#ffffff"/>
  <line opacity="undefined" id="svg_38" y2="36.82563" x2="520.05099" y1="46.09391" x1="641.02646" stroke-width="5" stroke="#d36804" fill="#ffffff"/>
  <line opacity="undefined" stroke="#d36804" id="svg_39" y2="42.67928" x2="636.14841" y1="133.41088" x1="693.70932" stroke-width="5" fill="#ffffff"/>
  <line opacity="undefined" stroke="#d36804" id="svg_40" y2="230.48391" x2="638.09963" y1="232.43514" x1="520.05099" stroke-width="5" fill="#ffffff"/>
  <line opacity="undefined" stroke="#d36804" id="svg_41" y2="231.45953" x2="518.09977" y1="144.63038" x1="475.173" stroke-width="5" fill="#ffffff"/>
  <line opacity="undefined" stroke="#d36804" id="svg_42" y2="226.58149" x2="640.05085" y1="135.8499" x1="693.22151" stroke-width="5" fill="#ffffff"/>
  <g id="svg_29">
   <path id="svg_27" d="m461.2063,164.1154c-12.35812,-7.0496 -16.65802,-22.76986 -9.60841,-35.12797c7.0496,-12.35812 22.76985,-16.65802 35.12797,-9.60841c12.35812,7.0496 16.65801,22.76985 9.60841,35.12797c-7.0496,12.35812 -22.76985,16.65801 -35.12797,9.60841z" opacity="undefined" stroke-width="5" stroke="#007010" fill="#92f492"/>
   <text stroke="#007010" transform="matrix(1.5643 0.00292536 -0.00292536 1.5643 245.406 -224.575)" xml:space="preserve" text-anchor="start" font-family="Noto Sans JP" font-size="24" id="svg_28" y="239.28014" x="141.76797" stroke-width="0" fill="#000000">s</text>
  </g>
  <path id="svg_30" d="m628.52315,69.96917c-12.35811,-7.0496 -16.65801,-22.76985 -9.60841,-35.12797c7.0496,-12.35812 22.76986,-16.65801 35.12797,-9.60841c12.35812,7.0496 16.65802,22.76985 9.60842,35.12797c-7.04961,12.35812 -22.76986,16.65802 -35.12798,9.60841z" opacity="undefined" stroke-width="5" stroke="#008484" fill="#79e0e0"/>
  <path id="svg_31" d="m626.57194,250.94456c-12.35812,-7.0496 -16.65802,-22.76986 -9.60841,-35.12797c7.0496,-12.35812 22.76985,-16.65802 35.12797,-9.60841c12.35812,7.0496 16.65801,22.76985 9.60841,35.12797c-7.0496,12.35812 -22.76985,16.65801 -35.12797,9.60841z" opacity="undefined" stroke-width="5" stroke="#008484" fill="#79e0e0"/>
  <path id="svg_32" d="m509.49891,64.60333c-12.35811,-7.0496 -16.65801,-22.76985 -9.60841,-35.12797c7.0496,-12.35812 22.76986,-16.65801 35.12797,-9.60841c12.35812,7.0496 16.65802,22.76985 9.60842,35.12797c-7.04961,12.35812 -22.76986,16.65802 -35.12798,9.60841z" opacity="undefined" stroke-width="5" stroke="#d36804" fill="#d8a377"/>
  <path id="svg_33" d="m506.08428,254.847c-12.35811,-7.0496 -16.65801,-22.76985 -9.60841,-35.12797c7.0496,-12.35812 22.76986,-16.65801 35.12797,-9.60841c12.35812,7.0496 16.65802,22.76985 9.60842,35.12797c-7.04961,12.35812 -22.76986,16.65802 -35.12798,9.60841z" opacity="undefined" stroke-width="5" stroke="#d36804" fill="#d8a377"/>
  <path id="svg_34" d="m681.69382,156.79834c-12.35811,-7.0496 -16.65801,-22.76985 -9.60841,-35.12797c7.0496,-12.35812 22.76986,-16.65801 35.12797,-9.60841c12.35812,7.0496 16.65802,22.76985 9.60842,35.12797c-7.04961,12.35812 -22.76986,16.65802 -35.12798,9.60841z" opacity="undefined" stroke-width="5" stroke="#d36804" fill="#d8a377"/>
  <path id="svg_43" d="m146.57251,158.74955c-12.35811,-7.0496 -16.65801,-22.76985 -9.60841,-35.12797c7.0496,-12.35812 22.76986,-16.65801 35.12797,-9.60841c12.35812,7.0496 16.65802,22.76985 9.60842,35.12797c-7.04961,12.35812 -22.76986,16.65802 -35.12798,9.60841z" opacity="undefined" stroke-width="5" stroke="#6b0000" fill="#d68686"/>
 </g>
</svg>